<?xml version="1.0" encoding="UTF-8" standalone="no"?>
<!-- Created with Inkscape (http://www.inkscape.org/) -->

<svg
   xmlns:dc="http://purl.org/dc/elements/1.1/"
   xmlns:cc="http://creativecommons.org/ns#"
   xmlns:rdf="http://www.w3.org/1999/02/22-rdf-syntax-ns#"
   xmlns:svg="http://www.w3.org/2000/svg"
   xmlns="http://www.w3.org/2000/svg"
   xmlns:xlink="http://www.w3.org/1999/xlink"
   xmlns:sodipodi="http://sodipodi.sourceforge.net/DTD/sodipodi-0.dtd"
   xmlns:inkscape="http://www.inkscape.org/namespaces/inkscape"
   id="svg2"
   version="1.1"
   inkscape:version="0.48.3.1 r9886"
   width="180"
   height="179"
   sodipodi:docname="Faenza-rana.svg">
  <metadata
     id="metadata8">
    <rdf:RDF>
      <cc:Work
         rdf:about="">
        <dc:format>image/svg+xml</dc:format>
        <dc:type
           rdf:resource="http://purl.org/dc/dcmitype/StillImage" />
        <dc:title />
      </cc:Work>
    </rdf:RDF>
  </metadata>
  <defs
     id="defs6">
    <filter
       inkscape:collect="always"
       id="filter3815"
       x="-0.10768778"
       width="1.2153755"
       y="-0.13549104"
       height="1.2709821"
       color-interpolation-filters="sRGB">
      <feGaussianBlur
         inkscape:collect="always"
         stdDeviation="0.38745116"
         id="feGaussianBlur3817" />
    </filter>
    <filter
       inkscape:collect="always"
       id="filter3819"
       x="-0.12818906"
       width="1.2563781"
       y="-0.1127944"
       height="1.2255888"
       color-interpolation-filters="sRGB">
      <feGaussianBlur
         inkscape:collect="always"
         stdDeviation="0.36109263"
         id="feGaussianBlur3821" />
    </filter>
    <linearGradient
       id="linearGradient3737-1">
      <stop
         id="stop3739"
         style="stop-color:#ffffff;stop-opacity:1"
         offset="0" />
      <stop
         id="stop3741"
         style="stop-color:#ffffff;stop-opacity:0"
         offset="1" />
    </linearGradient>
    <linearGradient
       id="linearGradient3057">
      <stop
         id="stop3059"
         style="stop-color:#ffffff;stop-opacity:1"
         offset="0" />
      <stop
         id="stop3061"
         style="stop-color:#ffffff;stop-opacity:0"
         offset="1" />
    </linearGradient>
    <linearGradient
       x1="10.31979"
       y1="21"
       x2="10.31979"
       y2="0.99929649"
       id="ButtonColor-6"
       gradientUnits="userSpaceOnUse">
      <stop
         id="stop3189-4"
         style="stop-color:#c8c8c8;stop-opacity:1"
         offset="0" />
      <stop
         id="stop3191-0"
         style="stop-color:#e6e6e6;stop-opacity:1"
         offset="1" />
    </linearGradient>
    <clipPath
       id="clipPath3266">
      <path
         d="M 0,0 0,96 96,96 96,0 0,0 z m 12,6 72,0 c 3.324,0 6,2.676 6,6 l 0,72 c 0,3.324 -2.676,6 -6,6 L 12,90 C 8.676,90 6,87.324 6,84 L 6,12 C 6,8.676 8.676,6 12,6 z"
         inkscape:connector-curvature="0"
         id="path3268"
         style="opacity:0.3;color:#000000;fill:#ff0000;fill-opacity:1;fill-rule:nonzero;stroke:none;stroke-width:4;marker:none;visibility:visible;display:inline;overflow:visible;enable-background:accumulate" />
    </clipPath>
    <linearGradient
       x1="32.251034"
       y1="6.1317081"
       x2="32.251034"
       y2="90.238609"
       id="linearGradient3101"
       xlink:href="#ButtonShadow-0"
       gradientUnits="userSpaceOnUse"
       gradientTransform="matrix(1.0238095,0,0,1.0119048,-1.1428571,-98.071429)" />
    <linearGradient
       x1="45.447727"
       y1="92.539597"
       x2="45.447727"
       y2="7.0165396"
       id="ButtonShadow-0"
       gradientUnits="userSpaceOnUse"
       gradientTransform="matrix(1.0058652,0,0,0.994169,100,0)">
      <stop
         id="stop3750-8"
         style="stop-color:#000000;stop-opacity:1"
         offset="0" />
      <stop
         id="stop3752-5"
         style="stop-color:#000000;stop-opacity:0.58823532"
         offset="1" />
    </linearGradient>
    <linearGradient
       x1="32.251034"
       y1="6.1317081"
       x2="32.251034"
       y2="90.238609"
       id="linearGradient3780"
       xlink:href="#ButtonShadow-0"
       gradientUnits="userSpaceOnUse"
       gradientTransform="matrix(1.0238095,0,0,1.0119048,-1.1428571,-98.071429)" />
    <linearGradient
       x1="45.447727"
       y1="92.539597"
       x2="45.447727"
       y2="7.0165396"
       id="linearGradient3074"
       gradientUnits="userSpaceOnUse"
       gradientTransform="matrix(1.0058652,0,0,0.994169,100,0)">
      <stop
         id="stop3076"
         style="stop-color:#000000;stop-opacity:1"
         offset="0" />
      <stop
         id="stop3078"
         style="stop-color:#000000;stop-opacity:0.58823532"
         offset="1" />
    </linearGradient>
    <linearGradient
       x1="32.251034"
       y1="6.1317081"
       x2="32.251034"
       y2="90.238609"
       id="linearGradient3772"
       xlink:href="#ButtonShadow-0"
       gradientUnits="userSpaceOnUse"
       gradientTransform="matrix(1.0238095,0,0,1.0119048,-1.1428571,-98.071429)" />
    <linearGradient
       x1="45.447727"
       y1="92.539597"
       x2="45.447727"
       y2="7.0165396"
       id="linearGradient3081"
       gradientUnits="userSpaceOnUse"
       gradientTransform="matrix(1.0058652,0,0,0.994169,100,0)">
      <stop
         id="stop3083"
         style="stop-color:#000000;stop-opacity:1"
         offset="0" />
      <stop
         id="stop3085"
         style="stop-color:#000000;stop-opacity:0.58823532"
         offset="1" />
    </linearGradient>
    <linearGradient
       x1="32.251034"
       y1="6.1317081"
       x2="32.251034"
       y2="90.238609"
       id="linearGradient3725-9"
       xlink:href="#ButtonShadow-0"
       gradientUnits="userSpaceOnUse"
       gradientTransform="matrix(1.0238095,0,0,1.0119048,-1.1428571,-98.071429)" />
    <linearGradient
       x1="45.447727"
       y1="92.539597"
       x2="45.447727"
       y2="7.0165396"
       id="linearGradient3088"
       gradientUnits="userSpaceOnUse"
       gradientTransform="matrix(1.0058652,0,0,0.994169,100,0)">
      <stop
         id="stop3090"
         style="stop-color:#000000;stop-opacity:1"
         offset="0" />
      <stop
         id="stop3092"
         style="stop-color:#000000;stop-opacity:0.58823532"
         offset="1" />
    </linearGradient>
    <linearGradient
       x1="32.251034"
       y1="6.1317081"
       x2="32.251034"
       y2="90.238609"
       id="linearGradient4256"
       xlink:href="#ButtonShadow-0"
       gradientUnits="userSpaceOnUse"
       gradientTransform="translate(0,-97)" />
    <linearGradient
       x1="45.447727"
       y1="92.539597"
       x2="45.447727"
       y2="7.0165396"
       id="linearGradient3095"
       gradientUnits="userSpaceOnUse"
       gradientTransform="matrix(1.0058652,0,0,0.994169,100,0)">
      <stop
         id="stop3097"
         style="stop-color:#000000;stop-opacity:1"
         offset="0" />
      <stop
         id="stop3099"
         style="stop-color:#000000;stop-opacity:0.58823532"
         offset="1" />
    </linearGradient>
    <radialGradient
       inkscape:collect="always"
       xlink:href="#linearGradient3057"
       id="radialGradient3266"
       cx="-126.10169"
       cy="8.5381365"
       fx="-126.10169"
       fy="8.5381365"
       r="48.601696"
       gradientTransform="matrix(-0.98648657,-0.01351351,0.01258823,-0.9188327,-250.60679,14.679179)"
       gradientUnits="userSpaceOnUse" />
  </defs>
  <sodipodi:namedview
     pagecolor="#ffffff"
     bordercolor="#666666"
     borderopacity="1"
     objecttolerance="10"
     gridtolerance="10"
     guidetolerance="10"
     inkscape:pageopacity="0"
     inkscape:pageshadow="2"
     inkscape:window-width="1316"
     inkscape:window-height="744"
     id="namedview4"
     showgrid="false"
     inkscape:zoom="1.5225807"
     inkscape:cx="106.67426"
     inkscape:cy="108.48835"
     inkscape:window-x="50"
     inkscape:window-y="24"
     inkscape:window-maximized="1"
     inkscape:current-layer="svg2" />
  <g
     transform="matrix(1.9556437,0,0,1.9556437,-3.578464,-7.2905916)"
     style="fill:#00d400;fill-opacity:1;display:inline"
     id="g3202"
     clip-path="url(#clipPath3266)">
    <path
       inkscape:connector-curvature="0"
       style="opacity:0.07999998;fill:#00d400;fill-opacity:1;fill-rule:nonzero;stroke:none;display:inline"
       id="path3786"
       transform="scale(1,-1)"
       d="m 12,-95.03125 c -5.5110903,0 -10.03125,4.52016 -10.03125,10.03125 l 0,71 c 0,5.5110902 4.5201598,10.03125 10.03125,10.03125 l 72,0 c 5.51109,0 10.03125,-4.5201597 10.03125,-10.03125 l 0,-71 c 0,-5.51109 -4.52016,-10.03125 -10.03125,-10.03125 l -72,0 z" />
    <path
       inkscape:connector-curvature="0"
       style="opacity:0.1;fill:#00d400;fill-opacity:1;fill-rule:nonzero;stroke:none;display:inline"
       id="path3778"
       transform="scale(1,-1)"
       d="m 12,-94.03125 c -4.971633,0 -9.03125,4.059617 -9.03125,9.03125 l 0,71 c 0,4.9716329 4.0596171,9.03125 9.03125,9.03125 l 72,0 c 4.971633,0 9.03125,-4.059617 9.03125,-9.03125 l 0,-71 c 0,-4.971633 -4.059617,-9.03125 -9.03125,-9.03125 l -72,0 z" />
    <path
       inkscape:connector-curvature="0"
       style="opacity:0.2;fill:#00d400;fill-opacity:1;fill-rule:nonzero;stroke:none;display:inline"
       id="path3770"
       transform="scale(1,-1)"
       d="m 12,-93 c -4.4091333,0 -8,3.590867 -8,8 l 0,71 c 0,4.4091333 3.5908667,8 8,8 l 72,0 c 4.409133,0 8,-3.5908667 8,-8 l 0,-71 c 0,-4.409133 -3.590867,-8 -8,-8 l -72,0 z" />
    <rect
       style="opacity:0.3;fill:#00d400;fill-opacity:1;fill-rule:nonzero;stroke:none;display:inline"
       id="rect3723"
       transform="scale(1,-1)"
       y="-92"
       x="5"
       ry="7"
       rx="7"
       height="85"
       width="86" />
    <rect
       style="opacity:0.45;fill:#00d400;fill-opacity:1;fill-rule:nonzero;stroke:none;display:inline"
       id="rect3716"
       transform="scale(1,-1)"
       y="-91"
       x="6"
       ry="6"
       rx="6"
       height="84"
       width="84" />
  </g>
  <rect
     style="opacity:0.75;fill:#00d400;fill-opacity:1;fill-rule:nonzero;stroke:none;display:inline"
     id="rect2419"
     y="4.4432721"
     x="8.1553984"
     ry="11.733862"
     rx="11.733862"
     height="164.27408"
     width="164.27408" />
  <path
     style="opacity:0.5;fill:#00d400;fill-opacity:1;fill-rule:nonzero;stroke:none;display:inline"
     id="rect3728"
     inkscape:connector-curvature="0"
     d="m 19.88926,4.4432724 c -6.500559,0 -11.733862,5.233302 -11.733862,11.7338616 l 0,3.911286 0,132.98377 0,3.91129 c 0,0.6546 0.08077,1.27254 0.183244,1.89453 0.09524,0.57808 0.189697,1.16736 0.366683,1.71119 0.01956,0.0594 0.04087,0.12438 0.06121,0.18334 0.193413,0.56278 0.459341,1.07062 0.7333664,1.58896 0.282767,0.53488 0.6172396,1.04747 0.9778216,1.52785 0.360601,0.48037 0.73098,0.92594 1.161163,1.3445 0.860386,0.83713 1.843996,1.59293 2.933466,2.13899 0.544744,0.27303 1.121503,0.48294 1.711188,0.67225 -0.501036,-0.196 -0.951831,-0.46206 -1.405619,-0.73336 -0.01369,-0.009 -0.04674,0.009 -0.06121,0 -0.06238,-0.0378 -0.121837,-0.0831 -0.183244,-0.12223 -0.23544,-0.15 -0.451793,-0.31978 -0.672253,-0.48891 -0.20763,-0.15802 -0.417099,-0.31508 -0.611138,-0.48891 -0.347968,-0.31571 -0.679508,-0.67546 -0.977822,-1.03894 -0.210388,-0.25473 -0.427093,-0.5188 -0.611139,-0.79448 -0.04909,-0.0751 -0.0751,-0.16793 -0.122228,-0.24446 -0.126725,-0.20149 -0.254683,-0.39996 -0.366683,-0.61113 -0.197539,-0.38078 -0.402217,-0.81297 -0.550025,-1.22228 -0.01564,-0.0426 -0.04615,-0.0793 -0.06121,-0.12223 -0.06219,-0.17982 -0.07001,-0.36537 -0.122228,-0.55002 -0.05926,-0.20851 -0.137677,-0.39706 -0.183244,-0.61114 -0.142566,-0.66788 -0.244455,-1.36544 -0.244455,-2.07787 l 0,-3.91129 0,-132.983776 0,-3.911287 c 0,-5.440303 4.337911,-9.7782176 9.778218,-9.7782176 l 3.911288,0 132.983772,0 3.91128,0 c 5.44031,0 9.77822,4.3379146 9.77822,9.7782176 l 0,3.911287 0,132.983776 0,3.91129 c 0,0.71243 -0.10189,1.40999 -0.24445,2.07787 -0.0864,0.40461 -0.17288,0.77767 -0.30557,1.16116 -0.0156,0.0429 -0.0456,0.0796 -0.0612,0.12223 -0.12262,0.33977 -0.27063,0.7186 -0.4278,1.03893 -0.0814,0.16193 -0.1545,0.33237 -0.24446,0.48892 -0.10677,0.1901 -0.24791,0.36834 -0.36668,0.55002 -0.18403,0.27568 -0.40075,0.53975 -0.61114,0.79448 -0.27999,0.34116 -0.59283,0.6786 -0.91671,0.97782 -0.0219,0.0199 -0.0391,0.0414 -0.0612,0.0611 -0.27062,0.24554 -0.55753,0.45847 -0.85559,0.67225 -0.20059,0.14305 -0.39958,0.29992 -0.61114,0.4278 -0.0137,0.009 -0.0465,-0.009 -0.0612,0 -0.45379,0.2713 -0.90458,0.53736 -1.40562,0.73336 0.58968,-0.1893 1.16646,-0.39922 1.71119,-0.67225 1.08947,-0.54606 2.07308,-1.30186 2.93346,-2.13899 0.43019,-0.41856 0.80058,-0.86413 1.16117,-1.3445 0.3606,-0.48038 0.69505,-0.99297 0.97782,-1.52785 0.27402,-0.51834 0.54003,-1.02618 0.73336,-1.58896 0.0203,-0.0602 0.0417,-0.1227 0.0612,-0.18334 0.17698,-0.54383 0.27144,-1.13311 0.36668,-1.71119 0.10248,-0.62199 0.18324,-1.23993 0.18324,-1.89453 l 0,-3.91129 0,-132.98377 0,-3.911286 c 0,-6.5005596 -5.2333,-11.7338616 -11.73386,-11.7338616 l -140.806343,0 z" />
  <path
     style="opacity:0.2;fill:#00d400;fill-opacity:1;fill-rule:nonzero;stroke:none;display:inline"
     id="path3615"
     inkscape:connector-curvature="0"
     d="m 19.88926,168.71734 c -6.500559,0 -11.733862,-5.2333 -11.733862,-11.73386 l 0,-3.91129 0,-132.98377 0,-3.911286 c 0,-0.654595 0.08077,-1.272537 0.183244,-1.89453 0.09524,-0.57808 0.189697,-1.167353 0.366683,-1.711188 0.01956,-0.05941 0.04087,-0.124379 0.06121,-0.183342 0.193413,-0.562777 0.459341,-1.070621 0.7333664,-1.58896 0.282767,-0.534883 0.6172396,-1.0474716 0.9778216,-1.5278466 0.360601,-0.480374 0.73098,-0.925942 1.161163,-1.344505 0.860386,-0.837125 1.843996,-1.592923 2.933466,-2.138985 0.544744,-0.273032 1.121503,-0.482941 1.711188,-0.672253 -0.501036,0.195999 -0.951831,0.462064 -1.405619,0.733366 -0.01369,0.0086 -0.04674,-0.0088 -0.06121,0 -0.06238,0.03774 -0.121837,0.08313 -0.183244,0.122228 -0.23544,0.149998 -0.451793,0.319773 -0.672253,0.488911 -0.20763,0.158016 -0.417099,0.315078 -0.611138,0.488911 -0.347968,0.315705 -0.679508,0.675456 -0.977822,1.038936 -0.210388,0.254732 -0.427093,0.518803 -0.611139,0.79448 -0.04909,0.07506 -0.0751,0.167931 -0.122228,0.244456 -0.126725,0.201493 -0.254683,0.399962 -0.366683,0.611138 -0.197539,0.3807756 -0.402217,0.8129626 -0.550025,1.2222776 -0.01564,0.04265 -0.04615,0.0793 -0.06121,0.122227 -0.06219,0.179822 -0.07001,0.365375 -0.122228,0.550025 -0.05926,0.208507 -0.137677,0.397056 -0.183244,0.611139 -0.142566,0.667876 -0.244455,1.36544 -0.244455,2.077871 l 0,3.911287 0,132.983773 0,3.91129 c 0,5.4403 4.337911,9.77822 9.778218,9.77822 l 3.911288,0 132.983772,0 3.91128,0 c 5.44031,0 9.77822,-4.33792 9.77822,-9.77822 l 0,-3.91129 0,-132.983773 0,-3.911287 c 0,-0.712431 -0.10189,-1.409996 -0.24445,-2.077871 -0.0864,-0.404609 -0.17288,-0.777678 -0.30557,-1.161164 -0.0156,-0.04293 -0.0456,-0.07958 -0.0612,-0.122228 -0.12262,-0.339771 -0.27063,-0.718599 -0.4278,-1.0389346 -0.0814,-0.161928 -0.1545,-0.33237 -0.24446,-0.488911 -0.10677,-0.190108 -0.24791,-0.368346 -0.36668,-0.550025 -0.18403,-0.275677 -0.40075,-0.539748 -0.61114,-0.79448 -0.27999,-0.341162 -0.59283,-0.678605 -0.91671,-0.977822 -0.0219,-0.01995 -0.0391,-0.04136 -0.0612,-0.06111 -0.27062,-0.245543 -0.55753,-0.458473 -0.85559,-0.672253 -0.20059,-0.143055 -0.39958,-0.299925 -0.61114,-0.427797 -0.0137,-0.0088 -0.0465,0.0086 -0.0612,0 -0.45379,-0.271302 -0.90458,-0.537368 -1.40562,-0.733366 0.58968,0.189306 1.16646,0.399221 1.71119,0.672252 1.08947,0.546063 2.07308,1.301861 2.93346,2.138986 0.43019,0.418562 0.80058,0.86413 1.16117,1.344505 0.3606,0.480374 0.69505,0.9929636 0.97782,1.5278456 0.27402,0.51834 0.54003,1.026183 0.73336,1.588961 0.0203,0.0602 0.0417,0.122697 0.0612,0.183342 0.17698,0.543835 0.27144,1.133107 0.36668,1.711188 0.10248,0.621992 0.18324,1.239935 0.18324,1.89453 l 0,3.911286 0,132.983766 0,3.91129 c 0,6.50056 -5.2333,11.73386 -11.73386,11.73386 l -140.806343,0 z" />
  <path
     sodipodi:type="arc"
     style="fill:url(#radialGradient3266);fill-opacity:1"
     id="path3258"
     sodipodi:cx="-129.38559"
     sodipodi:cy="8.5381365"
     sodipodi:rx="48.601696"
     sodipodi:ry="44.661018"
     d="m -80.783894,8.5381365 a 48.601696,44.661018 0 1 1 -97.203396,0 48.601696,44.661018 0 1 1 97.203396,0 z"
     transform="matrix(0.81617648,0,0,0.81617648,185.3326,30.495357)" />
  <path
     style="fill:#b3ff80;stroke:#000000;stroke-width:1.42362654;stroke-linecap:butt;stroke-linejoin:miter;stroke-miterlimit:4;stroke-opacity:1;stroke-dasharray:none"
     d="m 81.057712,47.685597 c 0,0 5.77846,-8.341283 10.05134,-10.752604 3.60669,-2.035366 8.13934,-3.583403 12.155118,-2.571274 5.14659,1.297137 9.65913,5.601074 12.15512,10.285098 3.3181,6.226829 2.33752,21.037702 2.33752,21.037702 0,0 5.82768,3.846166 7.94758,6.545063 1.54989,1.973216 3.27253,6.778814 3.27253,6.778814 0,0 -3.55316,4.924333 -4.67505,7.713823 -2.53227,6.29628 -4.44129,19.868941 -4.44129,19.868941 0,0 -11.72228,8.93368 -18.46642,11.68762 -5.164088,2.10873 -10.785138,3.58235 -16.362658,3.50628 -8.578968,-0.11702 -18.194285,-0.86814 -25.011492,-6.07756 -4.101087,-3.13388 -5.042594,-9.00804 -7.480072,-13.55763 -2.073708,-3.870611 -6.077559,-11.687611 -6.077559,-11.687611 0,0 -0.916302,-4.62336 -0.233751,-6.77882 1.091442,-3.446718 6.545062,-8.648831 6.545062,-8.648831 0,0 -4.369963,-8.66923 -4.20754,-13.323877 0.207386,-5.943172 2.247444,-12.486085 6.545062,-16.59641 3.81077,-3.644692 9.73901,-5.881133 14.960144,-5.142548 4.430547,0.626748 10.986356,7.713824 10.986356,7.713824 z"
     id="path2987"
     inkscape:connector-curvature="0"
     sodipodi:nodetypes="caaacacacaaaacacaaac" />
  <path
     style="fill:#b3ff80;stroke:#000000;stroke-width:1.42362654;stroke-linecap:butt;stroke-linejoin:miter;stroke-miterlimit:4;stroke-opacity:1;stroke-dasharray:none"
     d="m 49.968663,70.359563 c -2.812599,-3.779591 -11.687612,-7.947576 -11.687612,-7.947576 0,0 -0.978011,-5.952502 -2.571274,-8.41508 -0.899854,-1.390831 -2.089989,-3.419131 -3.740036,-3.272531 -1.490872,0.132457 -2.236246,2.121822 -2.805027,3.506283 -0.565689,1.376937 0.859314,3.766376 -0.467505,4.441293 -1.524714,0.775581 -2.777532,-2.173549 -4.441292,-2.571275 -1.366182,-0.326589 -3.617528,-1.041002 -4.20754,0.233753 -1.354954,2.927456 5.724554,5.170347 5.843805,7.713823 -0.0474,3.03441 -7.472238,3.123061 -6.778814,6.077559 0.868185,3.699105 7.542304,1.433898 10.986355,3.038778 2.742612,1.27802 4.678952,3.998443 7.480072,5.14255 2.929148,1.1964 9.350089,1.636266 9.350089,1.636266 l 4.441293,-5.14255 c 0,0 -0.475684,-3.195812 -1.402514,-4.441293 z"
     id="path2989"
     inkscape:connector-curvature="0"
     sodipodi:nodetypes="acaaaaaacaaacca" />
  <path
     style="fill:#b3ff80;stroke:#000000;stroke-width:1.42362654;stroke-linecap:butt;stroke-linejoin:miter;stroke-miterlimit:4;stroke-opacity:1;stroke-dasharray:none"
     d="m 117.75681,58.905704 11.45386,-12.622621 c 0,0 -1.26222,-6.352108 0,-9.116337 0.64242,-1.406881 1.96501,-3.1672 3.50628,-3.038779 2.31648,0.193011 2.12366,5.19783 4.4413,5.376301 1.87096,0.144074 2.45353,-3.073164 4.20754,-3.740036 0.9468,-0.359973 2.30486,-0.698133 3.03877,0 1.13051,1.075395 0.25468,3.11489 0.23376,4.675045 -0.0273,2.031655 -1.62144,4.405197 -0.46751,6.077558 0.78414,1.136425 3.67328,-0.178839 3.97379,1.168762 0.7929,3.555667 -5.67922,4.598496 -8.18133,7.246318 -2.59095,2.741845 -4.29505,6.266131 -7.01257,8.882587 -2.57096,2.475352 -8.64883,6.31131 -8.64883,6.31131 l -6.31131,-4.441294 z"
     id="path2991"
     inkscape:connector-curvature="0"
     sodipodi:nodetypes="ccaaaaaaaaaaccc" />
  <path
     style="fill:#b3ff80;stroke:#000000;stroke-width:1.42362654;stroke-linecap:butt;stroke-linejoin:miter;stroke-miterlimit:4;stroke-opacity:1;stroke-dasharray:none"
     d="m 139.72952,82.51468 c -2.58546,-0.31119 -3.48137,-4.705706 -6.07756,-4.908797 -2.33169,-0.1824 -4.57541,1.713623 -6.07755,3.506284 -3.08694,3.683942 -4.02786,8.832742 -4.9088,13.557632 -1.24363,6.670201 -3.42243,13.630011 -3.2609,20.570641 0.0981,4.21556 -0.62767,9.64762 2.55964,12.38842 4.49695,3.86699 12.00886,-0.87605 17.53142,-3.03878 6.13786,-2.40368 11.33633,-6.77987 16.59641,-10.7526 3.30473,-2.49593 7.36829,-4.54493 9.35009,-8.18133 1.28138,-2.35118 2.59142,-5.679091 1.16876,-7.947571 -1.5188,-2.42178 -6.31486,-0.4061 -8.18133,-2.57128 -2.93577,-3.4056 -0.11244,-9.29257 -2.10377,-13.323876 -1.00073,-2.02592 -2.45398,-4.493216 -4.67504,-4.908796 -4.3169,-0.80773 -7.56103,6.134872 -11.92137,5.610053 z"
     id="path2993"
     inkscape:connector-curvature="0"
     sodipodi:nodetypes="aaasasaaaaaaaa" />
  <path
     style="fill:#b3ff80;stroke:#000000;stroke-width:1.42362654;stroke-linecap:butt;stroke-linejoin:miter;stroke-miterlimit:4;stroke-opacity:1;stroke-dasharray:none"
     d="m 56.279973,111.49996 c -1.536764,-4.38351 -2.878749,-8.93987 -5.376301,-12.856371 -1.927597,-3.02274 -3.70491,-7.38992 -7.24632,-7.94758 -1.86163,-0.29315 -3.733274,1.33202 -4.908796,2.80503 -1.168468,1.46417 -0.06121,4.36224 -1.636266,5.3763 -3.502378,2.254911 -8.520581,-3.18146 -12.388869,-1.63627 -2.418322,0.966 -4.126104,3.593851 -4.908796,6.077561 -1.361516,4.32049 2.668543,9.37251 0.935008,13.55763 -1.225794,2.95933 -7.38048,3.11097 -7.246319,6.31131 0.242818,5.7923 8.822962,7.72636 14.025135,10.2851 6.040899,2.97128 12.702429,4.94353 19.401435,5.61005 5.601841,0.55736 13.629808,3.2288 16.830161,-1.40251 2.838475,-4.10763 0.236091,-10.68235 -1.350783,-15.68402 -1.22526,-3.86188 -4.778477,-6.64314 -6.129289,-10.49623 z"
     id="path2995"
     inkscape:connector-curvature="0"
     sodipodi:nodetypes="saaaaaaaaaasas" />
  <path
     sodipodi:type="arc"
     style="fill:#ffffff;stroke:none"
     id="path2997"
     sodipodi:cx="91.128181"
     sodipodi:cy="36.779659"
     sodipodi:rx="20.524364"
     sodipodi:ry="22.987288"
     d="m 111.65255,36.779659 a 20.524364,22.987288 0 1 1 -41.048733,0 20.524364,22.987288 0 1 1 41.048733,0 z"
     transform="matrix(0.71181327,0,0,0.71181327,2.602919,32.491701)" />
  <path
     sodipodi:type="arc"
     style="fill:#ffffff;stroke:none"
     id="path2999"
     sodipodi:cx="119.69809"
     sodipodi:cy="52.378178"
     sodipodi:rx="21.181143"
     sodipodi:ry="23.808262"
     d="m 140.87923,52.378178 a 21.181143,23.808262 0 1 1 -42.362283,0 21.181143,23.808262 0 1 1 42.362283,0 z"
     transform="matrix(0.71181327,0,0,0.71181327,13.991932,15.408184)" />
  <path
     sodipodi:type="arc"
     style="fill:#008000;stroke:none"
     id="path3001"
     sodipodi:cx="71.753181"
     sodipodi:cy="41.869705"
     sodipodi:rx="14.941737"
     sodipodi:ry="16.583687"
     d="m 86.694919,41.869705 a 14.941737,16.583687 0 1 1 -29.883475,0 14.941737,16.583687 0 1 1 29.883475,0 z"
     transform="matrix(0.71181327,0,0,0.71181327,16.839185,33.915328)" />
  <path
     sodipodi:type="arc"
     style="fill:#008000;stroke:none"
     id="path3005"
     sodipodi:cx="119.36971"
     sodipodi:cy="34.973518"
     sodipodi:rx="15.270127"
     sodipodi:ry="15.270126"
     d="m 134.63984,34.973518 a 15.270127,15.270126 0 1 1 -30.54025,0 15.270127,15.270126 0 1 1 30.54025,0 z"
     transform="matrix(0.71181327,0,0,0.71181327,13.524427,33.192958)" />
  <path
     sodipodi:type="arc"
     style="fill:#ffffff;stroke:none"
     id="path3009"
     sodipodi:cx="70.111229"
     sodipodi:cy="35.958687"
     sodipodi:rx="4.7616525"
     sodipodi:ry="5.7468224"
     d="m 74.872881,35.958687 a 4.7616525,5.7468224 0 1 1 -9.523305,0 4.7616525,5.7468224 0 1 1 9.523305,0 z"
     transform="matrix(0.71181327,0,0,0.71181327,12.568305,32.491701)" />
  <path
     sodipodi:type="arc"
     style="fill:#ffffff;stroke:none"
     id="path3011"
     sodipodi:cx="115.75742"
     sodipodi:cy="29.71928"
     sodipodi:rx="7.0603814"
     sodipodi:ry="6.7319913"
     d="m 122.8178,29.71928 a 7.0603814,6.7319913 0 1 1 -14.12076,0 7.0603814,6.7319913 0 1 1 14.12076,0 z"
     transform="matrix(0.71181327,0,0,0.71181327,12.568305,32.491701)" />
  <path
     style="fill:#000000;stroke:none"
     d="m 55.344965,85.085959 c 0,0 5.893253,6.52418 9.817594,8.18132 7.57815,3.20006 16.404913,3.76473 24.543983,2.57128 7.60256,-1.11478 15.468058,-3.84649 21.271458,-8.88259 2.87637,-2.49607 5.8438,-9.81759 5.8438,-9.81759 0,0 -0.26398,12.54517 -2.57127,18.23267 -2.28488,5.632241 -5.90006,11.066391 -10.75261,14.726391 -4.506888,3.3993 -10.252638,5.67208 -15.895148,5.84381 -5.69173,0.17324 -11.457244,-2.01694 -16.362655,-4.9088 -4.129495,-2.43444 -7.705988,-6.01063 -10.285098,-10.05134 -3.023004,-4.736171 -5.610054,-15.895151 -5.610054,-15.895151 z"
     id="path3013"
     inkscape:connector-curvature="0"
     sodipodi:nodetypes="caaacaaaaac" />
  <path
     style="fill:#ff0066;stroke:none"
     d="m 90.174042,107.05867 c 1.79526,0.0484 0.66004,-4.02011 2.22065,-4.9088 1.53283,-0.87287 3.62289,-0.0738 5.25943,0.58438 1.36637,0.5495 3.491068,1.21551 3.506278,2.68815 0.0207,1.99556 -2.898738,2.83042 -4.675038,3.74004 -2.19588,1.12446 -4.6635,2.0606 -7.12945,1.98689 -2.51224,-0.0751 -6.03627,-0.19122 -7.12944,-2.4544 -0.61095,-1.26485 0.42159,-2.96835 1.40251,-3.97378 1.22275,-1.25332 3.30855,-2.58074 4.9088,-1.87002 1.37529,0.61081 0.13197,4.16696 1.63626,4.20754 z"
     id="path3015"
     inkscape:connector-curvature="0"
     sodipodi:nodetypes="aaaaaaaaaa" />
  <path
     style="fill:#ff0066;stroke:none;filter:url(#filter3819)"
     d="m 61.408898,60.752119 c -1.183562,-0.574987 -2.879525,0.18661 -3.776483,1.149364 -1.339475,1.437732 -2.499725,4.180208 -1.313559,5.746822 0.661593,0.873791 2.29625,0.639345 3.283899,0.164195 1.519368,-0.730956 2.74268,-2.432305 2.955507,-4.104873 0.133429,-1.048589 -0.198581,-2.493607 -1.149364,-2.955508 z"
     id="path3038"
     inkscape:connector-curvature="0"
     sodipodi:nodetypes="aaaaaa"
     transform="matrix(0.71181327,0,0,0.71181327,12.568305,32.491701)" />
  <path
     style="fill:#ff0066;stroke:none;filter:url(#filter3815)"
     d="m 145.80509,48.10911 c -1.42445,-0.702268 -3.65817,-0.97799 -4.76165,0.164195 -0.7986,0.826609 -0.56066,2.444751 0,3.448093 0.81506,1.458604 2.60236,2.508978 4.26906,2.627119 1.36923,0.09705 3.41008,-0.319092 3.77649,-1.641949 0.50271,-1.814943 -1.59475,-3.764692 -3.2839,-4.597458 z"
     id="path3040"
     inkscape:connector-curvature="0"
     sodipodi:nodetypes="aaaaaa"
     transform="matrix(0.71181327,0,0,0.71181327,12.568305,32.491701)" />
  <path
     style="fill:none;stroke:#000000;stroke-width:1.42362654;stroke-linecap:butt;stroke-linejoin:miter;stroke-miterlimit:4;stroke-opacity:1;stroke-dasharray:none"
     d="m 35.125396,60.425094 c 0,0 -2.970379,1.490301 -3.389407,2.921902 -0.650962,2.223996 0.538679,4.930197 1.986896,6.661939"
     id="path3042"
     inkscape:connector-curvature="0"
     sodipodi:nodetypes="cac" />
  <path
     style="fill:none;stroke:#000000;stroke-width:1.42362654;stroke-linecap:butt;stroke-linejoin:miter;stroke-miterlimit:4;stroke-opacity:1;stroke-dasharray:none"
     d="m 132.13257,44.413065 c 0,0 2.94783,-0.909081 3.85691,0 1.87326,1.873261 1e-5,7.947576 1e-5,7.947576"
     id="path3044"
     inkscape:connector-curvature="0"
     sodipodi:nodetypes="cac" />
</svg>
